<svg width="2" height="2" fill="none" xmlns="http://www.w3.org/2000/svg"><path d="M.417 1.174c0-.142.023-.255.069-.34A.423.423 0 0 1 .67.646C.751.607.841.588.94.588c.1 0 .188.02.266.058a.42.42 0 0 1 .188.188c.046.087.068.2.068.34a.73.73 0 0 1-.068.337.434.434 0 0 1-.188.19.567.567 0 0 1-.266.061c-.1 0-.189-.02-.269-.06a.437.437 0 0 1-.185-.191.72.72 0 0 1-.069-.337Zm0 0c0-.142.023-.255.069-.34A.423.423 0 0 1 .67.646C.751.607.841.588.94.588c.1 0 .188.02.266.058a.42.42 0 0 1 .188.188c.046.087.068.2.068.34a.73.73 0 0 1-.068.337.434.434 0 0 1-.188.19.567.567 0 0 1-.266.061c-.1 0-.189-.02-.269-.06a.437.437 0 0 1-.185-.191.72.72 0 0 1-.069-.337Zm0 0c0-.142.023-.255.069-.34A.423.423 0 0 1 .67.646C.751.607.841.588.94.588c.1 0 .188.02.266.058a.42.42 0 0 1 .188.188c.046.087.068.2.068.34a.73.73 0 0 1-.068.337.434.434 0 0 1-.188.19.567.567 0 0 1-.266.061c-.1 0-.189-.02-.269-.06a.437.437 0 0 1-.185-.191.72.72 0 0 1-.069-.337Zm0 0c0-.142.023-.255.069-.34A.423.423 0 0 1 .67.646C.751.607.841.588.94.588c.1 0 .188.02.266.058a.42.42 0 0 1 .188.188c.046.087.068.2.068.34a.73.73 0 0 1-.068.337.434.434 0 0 1-.188.19.567.567 0 0 1-.266.061c-.1 0-.189-.02-.269-.06a.437.437 0 0 1-.185-.191.72.72 0 0 1-.069-.337Zm0 0c0-.142.023-.255.069-.34A.423.423 0 0 1 .67.646C.751.607.841.588.94.588c.1 0 .188.02.266.058a.42.42 0 0 1 .188.188c.046.087.068.2.068.34a.73.73 0 0 1-.068.337.434.434 0 0 1-.188.19.567.567 0 0 1-.266.061c-.1 0-.189-.02-.269-.06a.437.437 0 0 1-.185-.191.72.72 0 0 1-.069-.337Zm0 0c0-.142.023-.255.069-.34A.423.423 0 0 1 .67.646C.751.607.841.588.94.588c.1 0 .188.02.266.058a.42.42 0 0 1 .188.188c.046.087.068.2.068.34a.73.73 0 0 1-.068.337.434.434 0 0 1-.188.19.567.567 0 0 1-.266.061c-.1 0-.189-.02-.269-.06a.437.437 0 0 1-.185-.191.72.72 0 0 1-.069-.337Zm0 0c0-.142.023-.255.069-.34A.423.423 0 0 1 .67.646C.751.607.841.588.94.588c.1 0 .188.02.266.058a.42.42 0 0 1 .188.188c.046.087.068.2.068.34a.73.73 0 0 1-.068.337.434.434 0 0 1-.188.19.567.567 0 0 1-.266.061c-.1 0-.189-.02-.269-.06a.437.437 0 0 1-.185-.191.72.72 0 0 1-.069-.337Zm0 0c0-.142.023-.255.069-.34A.423.423 0 0 1 .67.646C.751.607.841.588.94.588c.1 0 .188.02.266.058a.42.42 0 0 1 .188.188c.046.087.068.2.068.34a.73.73 0 0 1-.068.337.434.434 0 0 1-.188.19.567.567 0 0 1-.266.061c-.1 0-.189-.02-.269-.06a.437.437 0 0 1-.185-.191.72.72 0 0 1-.069-.337Zm0 0c0-.142.023-.255.069-.34A.423.423 0 0 1 .67.646C.751.607.841.588.94.588c.1 0 .188.02.266.058a.42.42 0 0 1 .188.188c.046.087.068.2.068.34a.73.73 0 0 1-.068.337.434.434 0 0 1-.188.19.567.567 0 0 1-.266.061c-.1 0-.189-.02-.269-.06a.437.437 0 0 1-.185-.191.72.72 0 0 1-.069-.337Zm0 0c0-.142.023-.255.069-.34A.423.423 0 0 1 .67.646C.751.607.841.588.94.588c.1 0 .188.02.266.058a.42.42 0 0 1 .188.188c.046.087.068.2.068.34a.73.73 0 0 1-.068.337.434.434 0 0 1-.188.19.567.567 0 0 1-.266.061c-.1 0-.189-.02-.269-.06a.437.437 0 0 1-.185-.191.72.72 0 0 1-.069-.337Zm0 0c0-.142.023-.255.069-.34A.423.423 0 0 1 .67.646C.751.607.841.588.94.588c.1 0 .188.02.266.058a.42.42 0 0 1 .188.188c.046.087.068.2.068.34a.73.73 0 0 1-.068.337.434.434 0 0 1-.188.19.567.567 0 0 1-.266.061c-.1 0-.189-.02-.269-.06a.437.437 0 0 1-.185-.191.72.72 0 0 1-.069-.337Zm0 0c0-.142.023-.255.069-.34A.423.423 0 0 1 .67.646C.751.607.841.588.94.588c.1 0 .188.02.266.058a.42.42 0 0 1 .188.188c.046.087.068.2.068.34a.73.73 0 0 1-.068.337.434.434 0 0 1-.188.19.567.567 0 0 1-.266.061c-.1 0-.189-.02-.269-.06a.437.437 0 0 1-.185-.191.72.72 0 0 1-.069-.337Zm0 0c0-.142.023-.255.069-.34A.423.423 0 0 1 .67.646C.751.607.841.588.94.588c.1 0 .188.02.266.058a.42.42 0 0 1 .188.188c.046.087.068.2.068.34a.73.73 0 0 1-.068.337.434.434 0 0 1-.188.19.567.567 0 0 1-.266.061c-.1 0-.189-.02-.269-.06a.437.437 0 0 1-.185-.191.72.72 0 0 1-.069-.337Zm0 0c0-.142.023-.255.069-.34A.423.423 0 0 1 .67.646C.751.607.841.588.94.588c.1 0 .188.02.266.058a.42.42 0 0 1 .188.188c.046.087.068.2.068.34a.73.73 0 0 1-.068.337.434.434 0 0 1-.188.19.567.567 0 0 1-.266.061c-.1 0-.189-.02-.269-.06a.437.437 0 0 1-.185-.191.72.72 0 0 1-.069-.337Zm0 0c0-.142.023-.255.069-.34A.423.423 0 0 1 .67.646C.751.607.841.588.94.588c.1 0 .188.02.266.058a.42.42 0 0 1 .188.188c.046.087.068.2.068.34a.73.73 0 0 1-.068.337.434.434 0 0 1-.188.19.567.567 0 0 1-.266.061c-.1 0-.189-.02-.269-.06a.437.437 0 0 1-.185-.191.72.72 0 0 1-.069-.337Zm0 0c0-.142.023-.255.069-.34A.423.423 0 0 1 .67.646C.751.607.841.588.94.588c.1 0 .188.02.266.058a.42.42 0 0 1 .188.188c.046.087.068.2.068.34a.73.73 0 0 1-.068.337.434.434 0 0 1-.188.19.567.567 0 0 1-.266.061c-.1 0-.189-.02-.269-.06a.437.437 0 0 1-.185-.191.72.72 0 0 1-.069-.337Zm0 0c0-.142.023-.255.069-.34A.423.423 0 0 1 .67.646C.751.607.841.588.94.588c.1 0 .188.02.266.058a.42.42 0 0 1 .188.188c.046.087.068.2.068.34a.73.73 0 0 1-.068.337.434.434 0 0 1-.188.19.567.567 0 0 1-.266.061c-.1 0-.189-.02-.269-.06a.437.437 0 0 1-.185-.191.72.72 0 0 1-.069-.337Zm0 0c0-.142.023-.255.069-.34A.423.423 0 0 1 .67.646C.751.607.841.588.94.588c.1 0 .188.02.266.058a.42.42 0 0 1 .188.188c.046.087.068.2.068.34a.73.73 0 0 1-.068.337.434.434 0 0 1-.188.19.567.567 0 0 1-.266.061c-.1 0-.189-.02-.269-.06a.437.437 0 0 1-.185-.191.72.72 0 0 1-.069-.337Zm0 0c0-.142.023-.255.069-.34A.423.423 0 0 1 .67.646C.751.607.841.588.94.588c.1 0 .188.02.266.058a.42.42 0 0 1 .188.188c.046.087.068.2.068.34a.73.73 0 0 1-.068.337.434.434 0 0 1-.188.19.567.567 0 0 1-.266.061c-.1 0-.189-.02-.269-.06a.437.437 0 0 1-.185-.191.72.72 0 0 1-.069-.337Zm0 0c0-.142.023-.255.069-.34A.423.423 0 0 1 .67.646C.751.607.841.588.94.588c.1 0 .188.02.266.058a.42.42 0 0 1 .188.188c.046.087.068.2.068.34a.73.73 0 0 1-.068.337.434.434 0 0 1-.188.19.567.567 0 0 1-.266.061c-.1 0-.189-.02-.269-.06a.437.437 0 0 1-.185-.191.72.72 0 0 1-.069-.337Zm0 0c0-.142.023-.255.069-.34A.423.423 0 0 1 .67.646C.751.607.841.588.94.588c.1 0 .188.02.266.058a.42.42 0 0 1 .188.188c.046.087.068.2.068.34a.73.73 0 0 1-.068.337.434.434 0 0 1-.188.19.567.567 0 0 1-.266.061c-.1 0-.189-.02-.269-.06a.437.437 0 0 1-.185-.191.72.72 0 0 1-.069-.337Zm0 0c0-.142.023-.255.069-.34A.423.423 0 0 1 .67.646C.751.607.841.588.94.588c.1 0 .188.02.266.058a.42.42 0 0 1 .188.188c.046.087.068.2.068.34a.73.73 0 0 1-.068.337.434.434 0 0 1-.188.19.567.567 0 0 1-.266.061c-.1 0-.189-.02-.269-.06a.437.437 0 0 1-.185-.191.72.72 0 0 1-.069-.337Zm0 0c0-.142.023-.255.069-.34A.423.423 0 0 1 .67.646C.751.607.841.588.94.588c.1 0 .188.02.266.058a.42.42 0 0 1 .188.188c.046.087.068.2.068.34a.73.73 0 0 1-.068.337.434.434 0 0 1-.188.19.567.567 0 0 1-.266.061c-.1 0-.189-.02-.269-.06a.437.437 0 0 1-.185-.191.72.72 0 0 1-.069-.337Zm0 0c0-.142.023-.255.069-.34A.423.423 0 0 1 .67.646C.751.607.841.588.94.588c.1 0 .188.02.266.058a.42.42 0 0 1 .188.188c.046.087.068.2.068.34a.73.73 0 0 1-.068.337.434.434 0 0 1-.188.19.567.567 0 0 1-.266.061c-.1 0-.189-.02-.269-.06a.437.437 0 0 1-.185-.191.72.72 0 0 1-.069-.337Zm0 0c0-.142.023-.255.069-.34A.423.423 0 0 1 .67.646C.751.607.841.588.94.588c.1 0 .188.02.266.058a.42.42 0 0 1 .188.188c.046.087.068.2.068.34a.73.73 0 0 1-.068.337.434.434 0 0 1-.188.19.567.567 0 0 1-.266.061c-.1 0-.189-.02-.269-.06a.437.437 0 0 1-.185-.191.72.72 0 0 1-.069-.337Zm0 0c0-.142.023-.255.069-.34A.423.423 0 0 1 .67.646C.751.607.841.588.94.588c.1 0 .188.02.266.058a.42.42 0 0 1 .188.188c.046.087.068.2.068.34a.73.73 0 0 1-.068.337.434.434 0 0 1-.188.19.567.567 0 0 1-.266.061c-.1 0-.189-.02-.269-.06a.437.437 0 0 1-.185-.191.72.72 0 0 1-.069-.337Zm0 0c0-.142.023-.255.069-.34A.423.423 0 0 1 .67.646C.751.607.841.588.94.588c.1 0 .188.02.266.058a.42.42 0 0 1 .188.188c.046.087.068.2.068.34a.73.73 0 0 1-.068.337.434.434 0 0 1-.188.19.567.567 0 0 1-.266.061c-.1 0-.189-.02-.269-.06a.437.437 0 0 1-.185-.191.72.72 0 0 1-.069-.337Zm0 0c0-.142.023-.255.069-.34A.423.423 0 0 1 .67.646C.751.607.841.588.94.588c.1 0 .188.02.266.058a.42.42 0 0 1 .188.188c.046.087.068.2.068.34a.73.73 0 0 1-.068.337.434.434 0 0 1-.188.19.567.567 0 0 1-.266.061c-.1 0-.189-.02-.269-.06a.437.437 0 0 1-.185-.191.72.72 0 0 1-.069-.337Zm0 0c0-.142.023-.255.069-.34A.423.423 0 0 1 .67.646C.751.607.841.588.94.588c.1 0 .188.02.266.058a.42.42 0 0 1 .188.188c.046.087.068.2.068.34a.73.73 0 0 1-.068.337.434.434 0 0 1-.188.19.567.567 0 0 1-.266.061c-.1 0-.189-.02-.269-.06a.437.437 0 0 1-.185-.191.72.72 0 0 1-.069-.337Zm0 0c0-.142.023-.255.069-.34A.423.423 0 0 1 .67.646C.751.607.841.588.94.588c.1 0 .188.02.266.058a.42.42 0 0 1 .188.188c.046.087.068.2.068.34a.73.73 0 0 1-.068.337.434.434 0 0 1-.188.19.567.567 0 0 1-.266.061c-.1 0-.189-.02-.269-.06a.437.437 0 0 1-.185-.191.72.72 0 0 1-.069-.337Zm0 0c0-.142.023-.255.069-.34A.423.423 0 0 1 .67.646C.751.607.841.588.94.588c.1 0 .188.02.266.058a.42.42 0 0 1 .188.188c.046.087.068.2.068.34a.73.73 0 0 1-.068.337.434.434 0 0 1-.188.19.567.567 0 0 1-.266.061c-.1 0-.189-.02-.269-.06a.437.437 0 0 1-.185-.191.72.72 0 0 1-.069-.337Zm0 0c0-.142.023-.255.069-.34A.423.423 0 0 1 .67.646C.751.607.841.588.94.588c.1 0 .188.02.266.058a.42.42 0 0 1 .188.188c.046.087.068.2.068.34a.73.73 0 0 1-.068.337.434.434 0 0 1-.188.19.567.567 0 0 1-.266.061c-.1 0-.189-.02-.269-.06a.437.437 0 0 1-.185-.191.72.72 0 0 1-.069-.337Zm0 0c0-.142.023-.255.069-.34A.423.423 0 0 1 .67.646C.751.607.841.588.94.588c.1 0 .188.02.266.058a.42.42 0 0 1 .188.188c.046.087.068.2.068.34a.73.73 0 0 1-.068.337.434.434 0 0 1-.188.19.567.567 0 0 1-.266.061c-.1 0-.189-.02-.269-.06a.437.437 0 0 1-.185-.191.72.72 0 0 1-.069-.337Zm0 0c0-.142.023-.255.069-.34A.423.423 0 0 1 .67.646C.751.607.841.588.94.588c.1 0 .188.02.266.058a.42.42 0 0 1 .188.188c.046.087.068.2.068.34a.73.73 0 0 1-.068.337.434.434 0 0 1-.188.19.567.567 0 0 1-.266.061c-.1 0-.189-.02-.269-.06a.437.437 0 0 1-.185-.191.72.72 0 0 1-.069-.337Zm0 0c0-.142.023-.255.069-.34A.423.423 0 0 1 .67.646C.751.607.841.588.94.588c.1 0 .188.02.266.058a.42.42 0 0 1 .188.188c.046.087.068.2.068.34a.73.73 0 0 1-.068.337.434.434 0 0 1-.188.19.567.567 0 0 1-.266.061c-.1 0-.189-.02-.269-.06a.437.437 0 0 1-.185-.191.72.72 0 0 1-.069-.337Zm0 0c0-.142.023-.255.069-.34A.423.423 0 0 1 .67.646C.751.607.841.588.94.588c.1 0 .188.02.266.058a.42.42 0 0 1 .188.188c.046.087.068.2.068.34a.73.73 0 0 1-.068.337.434.434 0 0 1-.188.19.567.567 0 0 1-.266.061c-.1 0-.189-.02-.269-.06a.437.437 0 0 1-.185-.191.72.72 0 0 1-.069-.337Zm0 0c0-.142.023-.255.069-.34A.423.423 0 0 1 .67.646C.751.607.841.588.94.588c.1 0 .188.02.266.058a.42.42 0 0 1 .188.188c.046.087.068.2.068.34a.73.73 0 0 1-.068.337.434.434 0 0 1-.188.19.567.567 0 0 1-.266.061c-.1 0-.189-.02-.269-.06a.437.437 0 0 1-.185-.191.72.72 0 0 1-.069-.337Zm0 0c0-.142.023-.255.069-.34A.423.423 0 0 1 .67.646C.751.607.841.588.94.588c.1 0 .188.02.266.058a.42.42 0 0 1 .188.188c.046.087.068.2.068.34a.73.73 0 0 1-.068.337.434.434 0 0 1-.188.19.567.567 0 0 1-.266.061c-.1 0-.189-.02-.269-.06a.437.437 0 0 1-.185-.191.72.72 0 0 1-.069-.337Zm0 0c0-.142.023-.255.069-.34A.423.423 0 0 1 .67.646C.751.607.841.588.94.588c.1 0 .188.02.266.058a.42.42 0 0 1 .188.188c.046.087.068.2.068.34a.73.73 0 0 1-.068.337.434.434 0 0 1-.188.19.567.567 0 0 1-.266.061c-.1 0-.189-.02-.269-.06a.437.437 0 0 1-.185-.191.72.72 0 0 1-.069-.337Zm0 0c0-.142.023-.255.069-.34A.423.423 0 0 1 .67.646C.751.607.841.588.94.588c.1 0 .188.02.266.058a.42.42 0 0 1 .188.188c.046.087.068.2.068.34a.73.73 0 0 1-.068.337.434.434 0 0 1-.188.19.567.567 0 0 1-.266.061c-.1 0-.189-.02-.269-.06a.437.437 0 0 1-.185-.191.72.72 0 0 1-.069-.337Zm0 0c0-.142.023-.255.069-.34A.423.423 0 0 1 .67.646C.751.607.841.588.94.588c.1 0 .188.02.266.058a.42.42 0 0 1 .188.188c.046.087.068.2.068.34a.73.73 0 0 1-.068.337.434.434 0 0 1-.188.19.567.567 0 0 1-.266.061c-.1 0-.189-.02-.269-.06a.437.437 0 0 1-.185-.191.72.72 0 0 1-.069-.337Zm0 0c0-.142.023-.255.069-.34A.423.423 0 0 1 .67.646C.751.607.841.588.94.588c.1 0 .188.02.266.058a.42.42 0 0 1 .188.188c.046.087.068.2.068.34a.73.73 0 0 1-.068.337.434.434 0 0 1-.188.19.567.567 0 0 1-.266.061c-.1 0-.189-.02-.269-.06a.437.437 0 0 1-.185-.191.72.72 0 0 1-.069-.337Zm0 0c0-.142.023-.255.069-.34A.423.423 0 0 1 .67.646C.751.607.841.588.94.588c.1 0 .188.02.266.058a.42.42 0 0 1 .188.188c.046.087.068.2.068.34a.73.73 0 0 1-.068.337.434.434 0 0 1-.188.19.567.567 0 0 1-.266.061c-.1 0-.189-.02-.269-.06a.437.437 0 0 1-.185-.191.72.72 0 0 1-.069-.337Zm0 0c0-.142.023-.255.069-.34A.423.423 0 0 1 .67.646C.751.607.841.588.94.588c.1 0 .188.02.266.058a.42.42 0 0 1 .188.188c.046.087.068.2.068.34a.73.73 0 0 1-.068.337.434.434 0 0 1-.188.19.567.567 0 0 1-.266.061c-.1 0-.189-.02-.269-.06a.437.437 0 0 1-.185-.191.72.72 0 0 1-.069-.337Zm0 0c0-.142.023-.255.069-.34A.423.423 0 0 1 .67.646C.751.607.841.588.94.588c.1 0 .188.02.266.058a.42.42 0 0 1 .188.188c.046.087.068.2.068.34a.73.73 0 0 1-.068.337.434.434 0 0 1-.188.19.567.567 0 0 1-.266.061c-.1 0-.189-.02-.269-.06a.437.437 0 0 1-.185-.191.72.72 0 0 1-.069-.337Zm0 0c0-.142.023-.255.069-.34A.423.423 0 0 1 .67.646C.751.607.841.588.94.588c.1 0 .188.02.266.058a.42.42 0 0 1 .188.188c.046.087.068.2.068.34a.73.73 0 0 1-.068.337.434.434 0 0 1-.188.19.567.567 0 0 1-.266.061c-.1 0-.189-.02-.269-.06a.437.437 0 0 1-.185-.191.72.72 0 0 1-.069-.337Zm0 0c0-.142.023-.255.069-.34A.423.423 0 0 1 .67.646C.751.607.841.588.94.588c.1 0 .188.02.266.058a.42.42 0 0 1 .188.188c.046.087.068.2.068.34a.73.73 0 0 1-.068.337.434.434 0 0 1-.188.19.567.567 0 0 1-.266.061c-.1 0-.189-.02-.269-.06a.437.437 0 0 1-.185-.191.72.72 0 0 1-.069-.337Zm0 0c0-.142.023-.255.069-.34A.423.423 0 0 1 .67.646C.751.607.841.588.94.588c.1 0 .188.02.266.058a.42.42 0 0 1 .188.188c.046.087.068.2.068.34a.73.73 0 0 1-.068.337.434.434 0 0 1-.188.19.567.567 0 0 1-.266.061c-.1 0-.189-.02-.269-.06a.437.437 0 0 1-.185-.191.72.72 0 0 1-.069-.337Zm0 0c0-.142.023-.255.069-.34A.423.423 0 0 1 .67.646C.751.607.841.588.94.588c.1 0 .188.02.266.058a.42.42 0 0 1 .188.188c.046.087.068.2.068.34a.73.73 0 0 1-.068.337.434.434 0 0 1-.188.19.567.567 0 0 1-.266.061c-.1 0-.189-.02-.269-.06a.437.437 0 0 1-.185-.191.72.72 0 0 1-.069-.337Zm0 0c0-.142.023-.255.069-.34A.423.423 0 0 1 .67.646C.751.607.841.588.94.588c.1 0 .188.02.266.058a.42.42 0 0 1 .188.188c.046.087.068.2.068.34a.73.73 0 0 1-.068.337.434.434 0 0 1-.188.19.567.567 0 0 1-.266.061c-.1 0-.189-.02-.269-.06a.437.437 0 0 1-.185-.191.72.72 0 0 1-.069-.337Zm0 0c0-.142.023-.255.069-.34A.423.423 0 0 1 .67.646C.751.607.841.588.94.588c.1 0 .188.02.266.058a.42.42 0 0 1 .188.188c.046.087.068.2.068.34a.73.73 0 0 1-.068.337.434.434 0 0 1-.188.19.567.567 0 0 1-.266.061c-.1 0-.189-.02-.269-.06a.437.437 0 0 1-.185-.191.72.72 0 0 1-.069-.337Zm0 0c0-.142.023-.255.069-.34A.423.423 0 0 1 .67.646C.751.607.841.588.94.588c.1 0 .188.02.266.058a.42.42 0 0 1 .188.188c.046.087.068.2.068.34a.73.73 0 0 1-.068.337.434.434 0 0 1-.188.19.567.567 0 0 1-.266.061c-.1 0-.189-.02-.269-.06a.437.437 0 0 1-.185-.191.72.72 0 0 1-.069-.337Zm0 0c0-.142.023-.255.069-.34A.423.423 0 0 1 .67.646C.751.607.841.588.94.588c.1 0 .188.02.266.058a.42.42 0 0 1 .188.188c.046.087.068.2.068.34a.73.73 0 0 1-.068.337.434.434 0 0 1-.188.19.567.567 0 0 1-.266.061c-.1 0-.189-.02-.269-.06a.437.437 0 0 1-.185-.191.72.72 0 0 1-.069-.337Zm0 0c0-.142.023-.255.069-.34A.423.423 0 0 1 .67.646C.751.607.841.588.94.588c.1 0 .188.02.266.058a.42.42 0 0 1 .188.188c.046.087.068.2.068.34a.73.73 0 0 1-.068.337.434.434 0 0 1-.188.19.567.567 0 0 1-.266.061c-.1 0-.189-.02-.269-.06a.437.437 0 0 1-.185-.191.72.72 0 0 1-.069-.337Zm0 0c0-.142.023-.255.069-.34A.423.423 0 0 1 .67.646C.751.607.841.588.94.588c.1 0 .188.02.266.058a.42.42 0 0 1 .188.188c.046.087.068.2.068.34a.73.73 0 0 1-.068.337.434.434 0 0 1-.188.19.567.567 0 0 1-.266.061c-.1 0-.189-.02-.269-.06a.437.437 0 0 1-.185-.191.72.72 0 0 1-.069-.337Zm0 0c0-.142.023-.255.069-.34A.423.423 0 0 1 .67.646C.751.607.841.588.94.588c.1 0 .188.02.266.058a.42.42 0 0 1 .188.188c.046.087.068.2.068.34a.73.73 0 0 1-.068.337.434.434 0 0 1-.188.19.567.567 0 0 1-.266.061c-.1 0-.189-.02-.269-.06a.437.437 0 0 1-.185-.191.72.72 0 0 1-.069-.337Zm0 0c0-.142.023-.255.069-.34A.423.423 0 0 1 .67.646C.751.607.841.588.94.588c.1 0 .188.02.266.058a.42.42 0 0 1 .188.188c.046.087.068.2.068.34a.73.73 0 0 1-.068.337.434.434 0 0 1-.188.19.567.567 0 0 1-.266.061c-.1 0-.189-.02-.269-.06a.437.437 0 0 1-.185-.191.72.72 0 0 1-.069-.337Zm0 0c0-.142.023-.255.069-.34A.423.423 0 0 1 .67.646C.751.607.841.588.94.588c.1 0 .188.02.266.058a.42.42 0 0 1 .188.188c.046.087.068.2.068.34a.73.73 0 0 1-.068.337.434.434 0 0 1-.188.19.567.567 0 0 1-.266.061c-.1 0-.189-.02-.269-.06a.437.437 0 0 1-.185-.191.72.72 0 0 1-.069-.337Zm0 0c0-.142.023-.255.069-.34A.423.423 0 0 1 .67.646C.751.607.841.588.94.588c.1 0 .188.02.266.058a.42.42 0 0 1 .188.188c.046.087.068.2.068.34a.73.73 0 0 1-.068.337.434.434 0 0 1-.188.19.567.567 0 0 1-.266.061c-.1 0-.189-.02-.269-.06a.437.437 0 0 1-.185-.191.72.72 0 0 1-.069-.337Zm0 0c0-.142.023-.255.069-.34A.423.423 0 0 1 .67.646C.751.607.841.588.94.588c.1 0 .188.02.266.058a.42.42 0 0 1 .188.188c.046.087.068.2.068.34a.73.73 0 0 1-.068.337.434.434 0 0 1-.188.19.567.567 0 0 1-.266.061c-.1 0-.189-.02-.269-.06a.437.437 0 0 1-.185-.191.72.72 0 0 1-.069-.337Zm0 0c0-.142.023-.255.069-.34A.423.423 0 0 1 .67.646C.751.607.841.588.94.588c.1 0 .188.02.266.058a.42.42 0 0 1 .188.188c.046.087.068.2.068.34a.73.73 0 0 1-.068.337.434.434 0 0 1-.188.19.567.567 0 0 1-.266.061c-.1 0-.189-.02-.269-.06a.437.437 0 0 1-.185-.191.72.72 0 0 1-.069-.337Zm0 0c0-.142.023-.255.069-.34A.423.423 0 0 1 .67.646C.751.607.841.588.94.588c.1 0 .188.02.266.058a.42.42 0 0 1 .188.188c.046.087.068.2.068.34a.73.73 0 0 1-.068.337.434.434 0 0 1-.188.19.567.567 0 0 1-.266.061c-.1 0-.189-.02-.269-.06a.437.437 0 0 1-.185-.191.72.72 0 0 1-.069-.337Zm0 0c0-.142.023-.255.069-.34A.423.423 0 0 1 .67.646C.751.607.841.588.94.588c.1 0 .188.02.266.058a.42.42 0 0 1 .188.188c.046.087.068.2.068.34a.73.73 0 0 1-.068.337.434.434 0 0 1-.188.19.567.567 0 0 1-.266.061c-.1 0-.189-.02-.269-.06a.437.437 0 0 1-.185-.191.72.72 0 0 1-.069-.337Zm0 0c0-.142.023-.255.069-.34A.423.423 0 0 1 .67.646C.751.607.841.588.94.588c.1 0 .188.02.266.058a.42.42 0 0 1 .188.188c.046.087.068.2.068.34a.73.73 0 0 1-.068.337.434.434 0 0 1-.188.19.567.567 0 0 1-.266.061c-.1 0-.189-.02-.269-.06a.437.437 0 0 1-.185-.191.72.72 0 0 1-.069-.337Zm0 0c0-.142.023-.255.069-.34A.423.423 0 0 1 .67.646C.751.607.841.588.94.588c.1 0 .188.02.266.058a.42.42 0 0 1 .188.188c.046.087.068.2.068.34a.73.73 0 0 1-.068.337.434.434 0 0 1-.188.19.567.567 0 0 1-.266.061c-.1 0-.189-.02-.269-.06a.437.437 0 0 1-.185-.191.72.72 0 0 1-.069-.337Zm0 0c0-.142.023-.255.069-.34A.423.423 0 0 1 .67.646C.751.607.841.588.94.588c.1 0 .188.02.266.058a.42.42 0 0 1 .188.188c.046.087.068.2.068.34a.73.73 0 0 1-.068.337.434.434 0 0 1-.188.19.567.567 0 0 1-.266.061c-.1 0-.189-.02-.269-.06a.437.437 0 0 1-.185-.191.72.72 0 0 1-.069-.337Zm0 0c0-.142.023-.255.069-.34A.423.423 0 0 1 .67.646C.751.607.841.588.94.588c.1 0 .188.02.266.058a.42.42 0 0 1 .188.188c.046.087.068.2.068.34a.73.73 0 0 1-.068.337.434.434 0 0 1-.188.19.567.567 0 0 1-.266.061c-.1 0-.189-.02-.269-.06a.437.437 0 0 1-.185-.191.72.72 0 0 1-.069-.337Zm0 0c0-.142.023-.255.069-.34A.423.423 0 0 1 .67.646C.751.607.841.588.94.588c.1 0 .188.02.266.058a.42.42 0 0 1 .188.188c.046.087.068.2.068.34a.73.73 0 0 1-.068.337.434.434 0 0 1-.188.19.567.567 0 0 1-.266.061c-.1 0-.189-.02-.269-.06a.437.437 0 0 1-.185-.191.72.72 0 0 1-.069-.337Zm0 0c0-.142.023-.255.069-.34A.423.423 0 0 1 .67.646C.751.607.841.588.94.588c.1 0 .188.02.266.058a.42.42 0 0 1 .188.188c.046.087.068.2.068.34a.73.73 0 0 1-.068.337.434.434 0 0 1-.188.19.567.567 0 0 1-.266.061c-.1 0-.189-.02-.269-.06a.437.437 0 0 1-.185-.191.72.72 0 0 1-.069-.337Zm0 0c0-.142.023-.255.069-.34A.423.423 0 0 1 .67.646C.751.607.841.588.94.588c.1 0 .188.02.266.058a.42.42 0 0 1 .188.188c.046.087.068.2.068.34a.73.73 0 0 1-.068.337.434.434 0 0 1-.188.19.567.567 0 0 1-.266.061c-.1 0-.189-.02-.269-.06a.437.437 0 0 1-.185-.191.72.72 0 0 1-.069-.337Zm0 0c0-.142.023-.255.069-.34A.423.423 0 0 1 .67.646C.751.607.841.588.94.588c.1 0 .188.02.266.058a.42.42 0 0 1 .188.188c.046.087.068.2.068.34a.73.73 0 0 1-.068.337.434.434 0 0 1-.188.19.567.567 0 0 1-.266.061c-.1 0-.189-.02-.269-.06a.437.437 0 0 1-.185-.191.72.72 0 0 1-.069-.337Zm0 0c0-.142.023-.255.069-.34A.423.423 0 0 1 .67.646C.751.607.841.588.94.588c.1 0 .188.02.266.058a.42.42 0 0 1 .188.188c.046.087.068.2.068.34a.73.73 0 0 1-.068.337.434.434 0 0 1-.188.19.567.567 0 0 1-.266.061c-.1 0-.189-.02-.269-.06a.437.437 0 0 1-.185-.191.72.72 0 0 1-.069-.337Zm0 0c0-.142.023-.255.069-.34A.423.423 0 0 1 .67.646C.751.607.841.588.94.588c.1 0 .188.02.266.058a.42.42 0 0 1 .188.188c.046.087.068.2.068.34a.73.73 0 0 1-.068.337.434.434 0 0 1-.188.19.567.567 0 0 1-.266.061c-.1 0-.189-.02-.269-.06a.437.437 0 0 1-.185-.191.72.72 0 0 1-.069-.337Zm0 0c0-.142.023-.255.069-.34A.423.423 0 0 1 .67.646C.751.607.841.588.94.588c.1 0 .188.02.266.058a.42.42 0 0 1 .188.188c.046.087.068.2.068.34a.73.73 0 0 1-.068.337.434.434 0 0 1-.188.19.567.567 0 0 1-.266.061c-.1 0-.189-.02-.269-.06a.437.437 0 0 1-.185-.191.72.72 0 0 1-.069-.337Zm0 0c0-.142.023-.255.069-.34A.423.423 0 0 1 .67.646C.751.607.841.588.94.588c.1 0 .188.02.266.058a.42.42 0 0 1 .188.188c.046.087.068.2.068.34a.73.73 0 0 1-.068.337.434.434 0 0 1-.188.19.567.567 0 0 1-.266.061c-.1 0-.189-.02-.269-.06a.437.437 0 0 1-.185-.191.72.72 0 0 1-.069-.337Zm0 0c0-.142.023-.255.069-.34A.423.423 0 0 1 .67.646C.751.607.841.588.94.588c.1 0 .188.02.266.058a.42.42 0 0 1 .188.188c.046.087.068.2.068.34a.73.73 0 0 1-.068.337.434.434 0 0 1-.188.19.567.567 0 0 1-.266.061c-.1 0-.189-.02-.269-.06a.437.437 0 0 1-.185-.191.72.72 0 0 1-.069-.337Zm0 0c0-.142.023-.255.069-.34A.423.423 0 0 1 .67.646C.751.607.841.588.94.588c.1 0 .188.02.266.058a.42.42 0 0 1 .188.188c.046.087.068.2.068.34a.73.73 0 0 1-.068.337.434.434 0 0 1-.188.19.567.567 0 0 1-.266.061c-.1 0-.189-.02-.269-.06a.437.437 0 0 1-.185-.191.72.72 0 0 1-.069-.337Zm0 0c0-.142.023-.255.069-.34A.423.423 0 0 1 .67.646C.751.607.841.588.94.588c.1 0 .188.02.266.058a.42.42 0 0 1 .188.188c.046.087.068.2.068.34a.73.73 0 0 1-.068.337.434.434 0 0 1-.188.19.567.567 0 0 1-.266.061c-.1 0-.189-.02-.269-.06a.437.437 0 0 1-.185-.191.72.72 0 0 1-.069-.337Zm0 0c0-.142.023-.255.069-.34A.423.423 0 0 1 .67.646C.751.607.841.588.94.588c.1 0 .188.02.266.058a.42.42 0 0 1 .188.188c.046.087.068.2.068.34a.73.73 0 0 1-.068.337.434.434 0 0 1-.188.19.567.567 0 0 1-.266.061c-.1 0-.189-.02-.269-.06a.437.437 0 0 1-.185-.191.72.72 0 0 1-.069-.337Zm0 0c0-.142.023-.255.069-.34A.423.423 0 0 1 .67.646C.751.607.841.588.94.588c.1 0 .188.02.266.058a.42.42 0 0 1 .188.188c.046.087.068.2.068.34a.73.73 0 0 1-.068.337.434.434 0 0 1-.188.19.567.567 0 0 1-.266.061c-.1 0-.189-.02-.269-.06a.437.437 0 0 1-.185-.191.72.72 0 0 1-.069-.337Zm0 0c0-.142.023-.255.069-.34A.423.423 0 0 1 .67.646C.751.607.841.588.94.588c.1 0 .188.02.266.058a.42.42 0 0 1 .188.188c.046.087.068.2.068.34a.73.73 0 0 1-.068.337.434.434 0 0 1-.188.19.567.567 0 0 1-.266.061c-.1 0-.189-.02-.269-.06a.437.437 0 0 1-.185-.191.72.72 0 0 1-.069-.337Zm0 0c0-.142.023-.255.069-.34A.423.423 0 0 1 .67.646C.751.607.841.588.94.588c.1 0 .188.02.266.058a.42.42 0 0 1 .188.188c.046.087.068.2.068.34a.73.73 0 0 1-.068.337.434.434 0 0 1-.188.19.567.567 0 0 1-.266.061c-.1 0-.189-.02-.269-.06a.437.437 0 0 1-.185-.191.72.72 0 0 1-.069-.337Zm0 0c0-.142.023-.255.069-.34A.423.423 0 0 1 .67.646C.751.607.841.588.94.588c.1 0 .188.02.266.058a.42.42 0 0 1 .188.188c.046.087.068.2.068.34a.73.73 0 0 1-.068.337.434.434 0 0 1-.188.19.567.567 0 0 1-.266.061c-.1 0-.189-.02-.269-.06a.437.437 0 0 1-.185-.191.72.72 0 0 1-.069-.337Zm0 0c0-.142.023-.255.069-.34A.423.423 0 0 1 .67.646C.751.607.841.588.94.588c.1 0 .188.02.266.058a.42.42 0 0 1 .188.188c.046.087.068.2.068.34a.73.73 0 0 1-.068.337.434.434 0 0 1-.188.19.567.567 0 0 1-.266.061c-.1 0-.189-.02-.269-.06a.437.437 0 0 1-.185-.191.72.72 0 0 1-.069-.337Zm0 0c0-.142.023-.255.069-.34A.423.423 0 0 1 .67.646C.751.607.841.588.94.588c.1 0 .188.02.266.058a.42.42 0 0 1 .188.188c.046.087.068.2.068.34a.73.73 0 0 1-.068.337.434.434 0 0 1-.188.19.567.567 0 0 1-.266.061c-.1 0-.189-.02-.269-.06a.437.437 0 0 1-.185-.191.72.72 0 0 1-.069-.337Zm0 0c0-.142.023-.255.069-.34A.423.423 0 0 1 .67.646C.751.607.841.588.94.588c.1 0 .188.02.266.058a.42.42 0 0 1 .188.188c.046.087.068.2.068.34a.73.73 0 0 1-.068.337.434.434 0 0 1-.188.19.567.567 0 0 1-.266.061c-.1 0-.189-.02-.269-.06a.437.437 0 0 1-.185-.191.72.72 0 0 1-.069-.337Zm0 0c0-.142.023-.255.069-.34A.423.423 0 0 1 .67.646C.751.607.841.588.94.588c.1 0 .188.02.266.058a.42.42 0 0 1 .188.188c.046.087.068.2.068.34a.73.73 0 0 1-.068.337.434.434 0 0 1-.188.19.567.567 0 0 1-.266.061c-.1 0-.189-.02-.269-.06a.437.437 0 0 1-.185-.191.72.72 0 0 1-.069-.337Zm0 0c0-.142.023-.255.069-.34A.423.423 0 0 1 .67.646C.751.607.841.588.94.588c.1 0 .188.02.266.058a.42.42 0 0 1 .188.188c.046.087.068.2.068.34a.73.73 0 0 1-.068.337.434.434 0 0 1-.188.19.567.567 0 0 1-.266.061c-.1 0-.189-.02-.269-.06a.437.437 0 0 1-.185-.191.72.72 0 0 1-.069-.337Zm0 0c0-.142.023-.255.069-.34A.423.423 0 0 1 .67.646C.751.607.841.588.94.588c.1 0 .188.02.266.058a.42.42 0 0 1 .188.188c.046.087.068.2.068.34a.73.73 0 0 1-.068.337.434.434 0 0 1-.188.19.567.567 0 0 1-.266.061c-.1 0-.189-.02-.269-.06a.437.437 0 0 1-.185-.191.72.72 0 0 1-.069-.337Zm0 0c0-.142.023-.255.069-.34A.423.423 0 0 1 .67.646C.751.607.841.588.94.588c.1 0 .188.02.266.058a.42.42 0 0 1 .188.188c.046.087.068.2.068.34a.73.73 0 0 1-.068.337.434.434 0 0 1-.188.19.567.567 0 0 1-.266.061c-.1 0-.189-.02-.269-.06a.437.437 0 0 1-.185-.191.72.72 0 0 1-.069-.337Zm0 0c0-.142.023-.255.069-.34A.423.423 0 0 1 .67.646C.751.607.841.588.94.588c.1 0 .188.02.266.058a.42.42 0 0 1 .188.188c.046.087.068.2.068.34a.73.73 0 0 1-.068.337.434.434 0 0 1-.188.19.567.567 0 0 1-.266.061c-.1 0-.189-.02-.269-.06a.437.437 0 0 1-.185-.191.72.72 0 0 1-.069-.337Zm0 0c0-.142.023-.255.069-.34A.423.423 0 0 1 .67.646C.751.607.841.588.94.588c.1 0 .188.02.266.058a.42.42 0 0 1 .188.188c.046.087.068.2.068.34a.73.73 0 0 1-.068.337.434.434 0 0 1-.188.19.567.567 0 0 1-.266.061c-.1 0-.189-.02-.269-.06a.437.437 0 0 1-.185-.191.72.72 0 0 1-.069-.337Zm0 0c0-.142.023-.255.069-.34A.423.423 0 0 1 .67.646C.751.607.841.588.94.588c.1 0 .188.02.266.058a.42.42 0 0 1 .188.188c.046.087.068.2.068.34a.73.73 0 0 1-.068.337.434.434 0 0 1-.188.19.567.567 0 0 1-.266.061c-.1 0-.189-.02-.269-.06a.437.437 0 0 1-.185-.191.72.72 0 0 1-.069-.337Zm0 0c0-.142.023-.255.069-.34A.423.423 0 0 1 .67.646C.751.607.841.588.94.588c.1 0 .188.02.266.058a.42.42 0 0 1 .188.188c.046.087.068.2.068.34a.73.73 0 0 1-.068.337.434.434 0 0 1-.188.19.567.567 0 0 1-.266.061c-.1 0-.189-.02-.269-.06a.437.437 0 0 1-.185-.191.72.72 0 0 1-.069-.337Zm0 0c0-.142.023-.255.069-.34A.423.423 0 0 1 .67.646C.751.607.841.588.94.588c.1 0 .188.02.266.058a.42.42 0 0 1 .188.188c.046.087.068.2.068.34a.73.73 0 0 1-.068.337.434.434 0 0 1-.188.19.567.567 0 0 1-.266.061c-.1 0-.189-.02-.269-.06a.437.437 0 0 1-.185-.191.72.72 0 0 1-.069-.337Zm0 0c0-.142.023-.255.069-.34A.423.423 0 0 1 .67.646C.751.607.841.588.94.588c.1 0 .188.02.266.058a.42.42 0 0 1 .188.188c.046.087.068.2.068.34a.73.73 0 0 1-.068.337.434.434 0 0 1-.188.19.567.567 0 0 1-.266.061c-.1 0-.189-.02-.269-.06a.437.437 0 0 1-.185-.191.72.72 0 0 1-.069-.337Zm0 0c0-.142.023-.255.069-.34A.423.423 0 0 1 .67.646C.751.607.841.588.94.588c.1 0 .188.02.266.058a.42.42 0 0 1 .188.188c.046.087.068.2.068.34a.73.73 0 0 1-.068.337.434.434 0 0 1-.188.19.567.567 0 0 1-.266.061c-.1 0-.189-.02-.269-.06a.437.437 0 0 1-.185-.191.72.72 0 0 1-.069-.337Zm0 0c0-.142.023-.255.069-.34A.423.423 0 0 1 .67.646C.751.607.841.588.94.588c.1 0 .188.02.266.058a.42.42 0 0 1 .188.188c.046.087.068.2.068.34a.73.73 0 0 1-.068.337.434.434 0 0 1-.188.19.567.567 0 0 1-.266.061c-.1 0-.189-.02-.269-.06a.437.437 0 0 1-.185-.191.72.72 0 0 1-.069-.337Zm0 0c0-.142.023-.255.069-.34A.423.423 0 0 1 .67.646C.751.607.841.588.94.588c.1 0 .188.02.266.058a.42.42 0 0 1 .188.188c.046.087.068.2.068.34a.73.73 0 0 1-.068.337.434.434 0 0 1-.188.19.567.567 0 0 1-.266.061c-.1 0-.189-.02-.269-.06a.437.437 0 0 1-.185-.191.72.72 0 0 1-.069-.337Zm0 0c0-.142.023-.255.069-.34A.423.423 0 0 1 .67.646C.751.607.841.588.94.588c.1 0 .188.02.266.058a.42.42 0 0 1 .188.188c.046.087.068.2.068.34a.73.73 0 0 1-.068.337.434.434 0 0 1-.188.19.567.567 0 0 1-.266.061c-.1 0-.189-.02-.269-.06a.437.437 0 0 1-.185-.191.72.72 0 0 1-.069-.337Zm0 0c0-.142.023-.255.069-.34A.423.423 0 0 1 .67.646C.751.607.841.588.94.588c.1 0 .188.02.266.058a.42.42 0 0 1 .188.188c.046.087.068.2.068.34a.73.73 0 0 1-.068.337.434.434 0 0 1-.188.19.567.567 0 0 1-.266.061c-.1 0-.189-.02-.269-.06a.437.437 0 0 1-.185-.191.72.72 0 0 1-.069-.337Zm0 0c0-.142.023-.255.069-.34A.423.423 0 0 1 .67.646C.751.607.841.588.94.588c.1 0 .188.02.266.058a.42.42 0 0 1 .188.188c.046.087.068.2.068.34a.73.73 0 0 1-.068.337.434.434 0 0 1-.188.19.567.567 0 0 1-.266.061c-.1 0-.189-.02-.269-.06a.437.437 0 0 1-.185-.191.72.72 0 0 1-.069-.337Zm0 0c0-.142.023-.255.069-.34A.423.423 0 0 1 .67.646C.751.607.841.588.94.588c.1 0 .188.02.266.058a.42.42 0 0 1 .188.188c.046.087.068.2.068.34a.73.73 0 0 1-.068.337.434.434 0 0 1-.188.19.567.567 0 0 1-.266.061c-.1 0-.189-.02-.269-.06a.437.437 0 0 1-.185-.191.72.72 0 0 1-.069-.337Zm0 0c0-.142.023-.255.069-.34A.423.423 0 0 1 .67.646C.751.607.841.588.94.588c.1 0 .188.02.266.058a.42.42 0 0 1 .188.188c.046.087.068.2.068.34a.73.73 0 0 1-.068.337.434.434 0 0 1-.188.19.567.567 0 0 1-.266.061c-.1 0-.189-.02-.269-.06a.437.437 0 0 1-.185-.191.72.72 0 0 1-.069-.337Zm0 0c0-.142.023-.255.069-.34A.423.423 0 0 1 .67.646C.751.607.841.588.94.588c.1 0 .188.02.266.058a.42.42 0 0 1 .188.188c.046.087.068.2.068.34a.73.73 0 0 1-.068.337.434.434 0 0 1-.188.19.567.567 0 0 1-.266.061c-.1 0-.189-.02-.269-.06a.437.437 0 0 1-.185-.191.72.72 0 0 1-.069-.337Zm0 0c0-.142.023-.255.069-.34A.423.423 0 0 1 .67.646C.751.607.841.588.94.588c.1 0 .188.02.266.058a.42.42 0 0 1 .188.188c.046.087.068.2.068.34a.73.73 0 0 1-.068.337.434.434 0 0 1-.188.19.567.567 0 0 1-.266.061c-.1 0-.189-.02-.269-.06a.437.437 0 0 1-.185-.191.72.72 0 0 1-.069-.337Zm0 0c0-.142.023-.255.069-.34A.423.423 0 0 1 .67.646C.751.607.841.588.94.588c.1 0 .188.02.266.058a.42.42 0 0 1 .188.188c.046.087.068.2.068.34a.73.73 0 0 1-.068.337.434.434 0 0 1-.188.19.567.567 0 0 1-.266.061c-.1 0-.189-.02-.269-.06a.437.437 0 0 1-.185-.191.72.72 0 0 1-.069-.337Zm0 0c0-.142.023-.255.069-.34A.423.423 0 0 1 .67.646C.751.607.841.588.94.588c.1 0 .188.02.266.058a.42.42 0 0 1 .188.188c.046.087.068.2.068.34a.73.73 0 0 1-.068.337.434.434 0 0 1-.188.19.567.567 0 0 1-.266.061c-.1 0-.189-.02-.269-.06a.437.437 0 0 1-.185-.191.72.72 0 0 1-.069-.337Zm0 0c0-.142.023-.255.069-.34A.423.423 0 0 1 .67.646C.751.607.841.588.94.588c.1 0 .188.02.266.058a.42.42 0 0 1 .188.188c.046.087.068.2.068.34a.73.73 0 0 1-.068.337.434.434 0 0 1-.188.19.567.567 0 0 1-.266.061c-.1 0-.189-.02-.269-.06a.437.437 0 0 1-.185-.191.72.72 0 0 1-.069-.337Zm0 0c0-.142.023-.255.069-.34A.423.423 0 0 1 .67.646C.751.607.841.588.94.588c.1 0 .188.02.266.058a.42.42 0 0 1 .188.188c.046.087.068.2.068.34a.73.73 0 0 1-.068.337.434.434 0 0 1-.188.19.567.567 0 0 1-.266.061c-.1 0-.189-.02-.269-.06a.437.437 0 0 1-.185-.191.72.72 0 0 1-.069-.337Zm0 0c0-.142.023-.255.069-.34A.423.423 0 0 1 .67.646C.751.607.841.588.94.588c.1 0 .188.02.266.058a.42.42 0 0 1 .188.188c.046.087.068.2.068.34a.73.73 0 0 1-.068.337.434.434 0 0 1-.188.19.567.567 0 0 1-.266.061c-.1 0-.189-.02-.269-.06a.437.437 0 0 1-.185-.191.72.72 0 0 1-.069-.337Zm0 0c0-.142.023-.255.069-.34A.423.423 0 0 1 .67.646C.751.607.841.588.94.588c.1 0 .188.02.266.058a.42.42 0 0 1 .188.188c.046.087.068.2.068.34a.73.73 0 0 1-.068.337.434.434 0 0 1-.188.19.567.567 0 0 1-.266.061c-.1 0-.189-.02-.269-.06a.437.437 0 0 1-.185-.191.72.72 0 0 1-.069-.337Zm0 0c0-.142.023-.255.069-.34A.423.423 0 0 1 .67.646C.751.607.841.588.94.588c.1 0 .188.02.266.058a.42.42 0 0 1 .188.188c.046.087.068.2.068.34a.73.73 0 0 1-.068.337.434.434 0 0 1-.188.19.567.567 0 0 1-.266.061c-.1 0-.189-.02-.269-.06a.437.437 0 0 1-.185-.191.72.72 0 0 1-.069-.337Zm0 0c0-.142.023-.255.069-.34A.423.423 0 0 1 .67.646C.751.607.841.588.94.588c.1 0 .188.02.266.058a.42.42 0 0 1 .188.188c.046.087.068.2.068.34a.73.73 0 0 1-.068.337.434.434 0 0 1-.188.19.567.567 0 0 1-.266.061c-.1 0-.189-.02-.269-.06a.437.437 0 0 1-.185-.191.72.72 0 0 1-.069-.337Zm0 0c0-.142.023-.255.069-.34A.423.423 0 0 1 .67.646C.751.607.841.588.94.588c.1 0 .188.02.266.058a.42.42 0 0 1 .188.188c.046.087.068.2.068.34a.73.73 0 0 1-.068.337.434.434 0 0 1-.188.19.567.567 0 0 1-.266.061c-.1 0-.189-.02-.269-.06a.437.437 0 0 1-.185-.191.72.72 0 0 1-.069-.337Zm0 0c0-.142.023-.255.069-.34A.423.423 0 0 1 .67.646C.751.607.841.588.94.588c.1 0 .188.02.266.058a.42.42 0 0 1 .188.188c.046.087.068.2.068.34a.73.73 0 0 1-.068.337.434.434 0 0 1-.188.19.567.567 0 0 1-.266.061c-.1 0-.189-.02-.269-.06a.437.437 0 0 1-.185-.191.72.72 0 0 1-.069-.337Zm0 0c0-.142.023-.255.069-.34A.423.423 0 0 1 .67.646C.751.607.841.588.94.588c.1 0 .188.02.266.058a.42.42 0 0 1 .188.188c.046.087.068.2.068.34a.73.73 0 0 1-.068.337.434.434 0 0 1-.188.19.567.567 0 0 1-.266.061c-.1 0-.189-.02-.269-.06a.437.437 0 0 1-.185-.191.72.72 0 0 1-.069-.337Zm0 0c0-.142.023-.255.069-.34A.423.423 0 0 1 .67.646C.751.607.841.588.94.588c.1 0 .188.02.266.058a.42.42 0 0 1 .188.188c.046.087.068.2.068.34a.73.73 0 0 1-.068.337.434.434 0 0 1-.188.19.567.567 0 0 1-.266.061c-.1 0-.189-.02-.269-.06a.437.437 0 0 1-.185-.191.72.72 0 0 1-.069-.337Zm0 0c0-.142.023-.255.069-.34A.423.423 0 0 1 .67.646C.751.607.841.588.94.588c.1 0 .188.02.266.058a.42.42 0 0 1 .188.188c.046.087.068.2.068.34a.73.73 0 0 1-.068.337.434.434 0 0 1-.188.19.567.567 0 0 1-.266.061c-.1 0-.189-.02-.269-.06a.437.437 0 0 1-.185-.191.72.72 0 0 1-.069-.337Zm0 0c0-.142.023-.255.069-.34A.423.423 0 0 1 .67.646C.751.607.841.588.94.588c.1 0 .188.02.266.058a.42.42 0 0 1 .188.188c.046.087.068.2.068.34a.73.73 0 0 1-.068.337.434.434 0 0 1-.188.19.567.567 0 0 1-.266.061c-.1 0-.189-.02-.269-.06a.437.437 0 0 1-.185-.191.72.72 0 0 1-.069-.337Zm0 0c0-.142.023-.255.069-.34A.423.423 0 0 1 .67.646C.751.607.841.588.94.588c.1 0 .188.02.266.058a.42.42 0 0 1 .188.188c.046.087.068.2.068.34a.73.73 0 0 1-.068.337.434.434 0 0 1-.188.19.567.567 0 0 1-.266.061c-.1 0-.189-.02-.269-.06a.437.437 0 0 1-.185-.191.72.72 0 0 1-.069-.337Zm0 0c0-.142.023-.255.069-.34A.423.423 0 0 1 .67.646C.751.607.841.588.94.588c.1 0 .188.02.266.058a.42.42 0 0 1 .188.188c.046.087.068.2.068.34a.73.73 0 0 1-.068.337.434.434 0 0 1-.188.19.567.567 0 0 1-.266.061c-.1 0-.189-.02-.269-.06a.437.437 0 0 1-.185-.191.72.72 0 0 1-.069-.337Zm0 0c0-.142.023-.255.069-.34A.423.423 0 0 1 .67.646C.751.607.841.588.94.588c.1 0 .188.02.266.058a.42.42 0 0 1 .188.188c.046.087.068.2.068.34a.73.73 0 0 1-.068.337.434.434 0 0 1-.188.19.567.567 0 0 1-.266.061c-.1 0-.189-.02-.269-.06a.437.437 0 0 1-.185-.191.72.72 0 0 1-.069-.337Zm0 0c0-.142.023-.255.069-.34A.423.423 0 0 1 .67.646C.751.607.841.588.94.588c.1 0 .188.02.266.058a.42.42 0 0 1 .188.188c.046.087.068.2.068.34a.73.73 0 0 1-.068.337.434.434 0 0 1-.188.19.567.567 0 0 1-.266.061c-.1 0-.189-.02-.269-.06a.437.437 0 0 1-.185-.191.72.72 0 0 1-.069-.337Zm0 0c0-.142.023-.255.069-.34A.423.423 0 0 1 .67.646C.751.607.841.588.94.588c.1 0 .188.02.266.058a.42.42 0 0 1 .188.188c.046.087.068.2.068.34a.73.73 0 0 1-.068.337.434.434 0 0 1-.188.19.567.567 0 0 1-.266.061c-.1 0-.189-.02-.269-.06a.437.437 0 0 1-.185-.191.72.72 0 0 1-.069-.337Zm0 0c0-.142.023-.255.069-.34A.423.423 0 0 1 .67.646C.751.607.841.588.94.588c.1 0 .188.02.266.058a.42.42 0 0 1 .188.188c.046.087.068.2.068.34a.73.73 0 0 1-.068.337.434.434 0 0 1-.188.19.567.567 0 0 1-.266.061c-.1 0-.189-.02-.269-.06a.437.437 0 0 1-.185-.191.72.72 0 0 1-.069-.337Zm0 0c0-.142.023-.255.069-.34A.423.423 0 0 1 .67.646C.751.607.841.588.94.588c.1 0 .188.02.266.058a.42.42 0 0 1 .188.188c.046.087.068.2.068.34a.73.73 0 0 1-.068.337.434.434 0 0 1-.188.19.567.567 0 0 1-.266.061c-.1 0-.189-.02-.269-.06a.437.437 0 0 1-.185-.191.72.72 0 0 1-.069-.337Zm0 0c0-.142.023-.255.069-.34A.423.423 0 0 1 .67.646C.751.607.841.588.94.588c.1 0 .188.02.266.058a.42.42 0 0 1 .188.188c.046.087.068.2.068.34a.73.73 0 0 1-.068.337.434.434 0 0 1-.188.19.567.567 0 0 1-.266.061c-.1 0-.189-.02-.269-.06a.437.437 0 0 1-.185-.191.72.72 0 0 1-.069-.337Zm0 0c0-.142.023-.255.069-.34A.423.423 0 0 1 .67.646C.751.607.841.588.94.588c.1 0 .188.02.266.058a.42.42 0 0 1 .188.188c.046.087.068.2.068.34a.73.73 0 0 1-.068.337.434.434 0 0 1-.188.19.567.567 0 0 1-.266.061c-.1 0-.189-.02-.269-.06a.437.437 0 0 1-.185-.191.72.72 0 0 1-.069-.337Zm0 0c0-.142.023-.255.069-.34A.423.423 0 0 1 .67.646C.751.607.841.588.94.588c.1 0 .188.02.266.058a.42.42 0 0 1 .188.188c.046.087.068.2.068.34a.73.73 0 0 1-.068.337.434.434 0 0 1-.188.19.567.567 0 0 1-.266.061c-.1 0-.189-.02-.269-.06a.437.437 0 0 1-.185-.191.72.72 0 0 1-.069-.337Zm0 0c0-.142.023-.255.069-.34A.423.423 0 0 1 .67.646C.751.607.841.588.94.588c.1 0 .188.02.266.058a.42.42 0 0 1 .188.188c.046.087.068.2.068.34a.73.73 0 0 1-.068.337.434.434 0 0 1-.188.19.567.567 0 0 1-.266.061c-.1 0-.189-.02-.269-.06a.437.437 0 0 1-.185-.191.72.72 0 0 1-.069-.337Zm0 0c0-.142.023-.255.069-.34A.423.423 0 0 1 .67.646C.751.607.841.588.94.588c.1 0 .188.02.266.058a.42.42 0 0 1 .188.188c.046.087.068.2.068.34a.73.73 0 0 1-.068.337.434.434 0 0 1-.188.19.567.567 0 0 1-.266.061c-.1 0-.189-.02-.269-.06a.437.437 0 0 1-.185-.191.72.72 0 0 1-.069-.337Zm0 0c0-.142.023-.255.069-.34A.423.423 0 0 1 .67.646C.751.607.841.588.94.588c.1 0 .188.02.266.058a.42.42 0 0 1 .188.188c.046.087.068.2.068.34a.73.73 0 0 1-.068.337.434.434 0 0 1-.188.19.567.567 0 0 1-.266.061c-.1 0-.189-.02-.269-.06a.437.437 0 0 1-.185-.191.72.72 0 0 1-.069-.337Zm0 0c0-.142.023-.255.069-.34A.423.423 0 0 1 .67.646C.751.607.841.588.94.588c.1 0 .188.02.266.058a.42.42 0 0 1 .188.188c.046.087.068.2.068.34a.73.73 0 0 1-.068.337.434.434 0 0 1-.188.19.567.567 0 0 1-.266.061c-.1 0-.189-.02-.269-.06a.437.437 0 0 1-.185-.191.72.72 0 0 1-.069-.337Zm0 0c0-.142.023-.255.069-.34A.423.423 0 0 1 .67.646C.751.607.841.588.94.588c.1 0 .188.02.266.058a.42.42 0 0 1 .188.188c.046.087.068.2.068.34a.73.73 0 0 1-.068.337.434.434 0 0 1-.188.19.567.567 0 0 1-.266.061c-.1 0-.189-.02-.269-.06a.437.437 0 0 1-.185-.191.72.72 0 0 1-.069-.337Zm0 0c0-.142.023-.255.069-.34A.423.423 0 0 1 .67.646C.751.607.841.588.94.588c.1 0 .188.02.266.058a.42.42 0 0 1 .188.188c.046.087.068.2.068.34a.73.73 0 0 1-.068.337.434.434 0 0 1-.188.19.567.567 0 0 1-.266.061c-.1 0-.189-.02-.269-.06a.437.437 0 0 1-.185-.191.72.72 0 0 1-.069-.337Zm0 0c0-.142.023-.255.069-.34A.423.423 0 0 1 .67.646C.751.607.841.588.94.588c.1 0 .188.02.266.058a.42.42 0 0 1 .188.188c.046.087.068.2.068.34a.73.73 0 0 1-.068.337.434.434 0 0 1-.188.19.567.567 0 0 1-.266.061c-.1 0-.189-.02-.269-.06a.437.437 0 0 1-.185-.191.72.72 0 0 1-.069-.337Zm0 0c0-.142.023-.255.069-.34A.423.423 0 0 1 .67.646C.751.607.841.588.94.588c.1 0 .188.02.266.058a.42.42 0 0 1 .188.188c.046.087.068.2.068.34a.73.73 0 0 1-.068.337.434.434 0 0 1-.188.19.567.567 0 0 1-.266.061c-.1 0-.189-.02-.269-.06a.437.437 0 0 1-.185-.191.72.72 0 0 1-.069-.337Zm0 0c0-.142.023-.255.069-.34A.423.423 0 0 1 .67.646C.751.607.841.588.94.588c.1 0 .188.02.266.058a.42.42 0 0 1 .188.188c.046.087.068.2.068.34a.73.73 0 0 1-.068.337.434.434 0 0 1-.188.19.567.567 0 0 1-.266.061c-.1 0-.189-.02-.269-.06a.437.437 0 0 1-.185-.191.72.72 0 0 1-.069-.337Zm0 0c0-.142.023-.255.069-.34A.423.423 0 0 1 .67.646C.751.607.841.588.94.588c.1 0 .188.02.266.058a.42.42 0 0 1 .188.188c.046.087.068.2.068.34a.73.73 0 0 1-.068.337.434.434 0 0 1-.188.19.567.567 0 0 1-.266.061c-.1 0-.189-.02-.269-.06a.437.437 0 0 1-.185-.191.72.72 0 0 1-.069-.337Zm0 0c0-.142.023-.255.069-.34A.423.423 0 0 1 .67.646C.751.607.841.588.94.588c.1 0 .188.02.266.058a.42.42 0 0 1 .188.188c.046.087.068.2.068.34a.73.73 0 0 1-.068.337.434.434 0 0 1-.188.19.567.567 0 0 1-.266.061c-.1 0-.189-.02-.269-.06a.437.437 0 0 1-.185-.191.72.72 0 0 1-.069-.337Zm0 0c0-.142.023-.255.069-.34A.423.423 0 0 1 .67.646C.751.607.841.588.94.588c.1 0 .188.02.266.058a.42.42 0 0 1 .188.188c.046.087.068.2.068.34a.73.73 0 0 1-.068.337.434.434 0 0 1-.188.19.567.567 0 0 1-.266.061c-.1 0-.189-.02-.269-.06a.437.437 0 0 1-.185-.191.72.72 0 0 1-.069-.337Zm0 0c0-.142.023-.255.069-.34A.423.423 0 0 1 .67.646C.751.607.841.588.94.588c.1 0 .188.02.266.058a.42.42 0 0 1 .188.188c.046.087.068.2.068.34a.73.73 0 0 1-.068.337.434.434 0 0 1-.188.19.567.567 0 0 1-.266.061c-.1 0-.189-.02-.269-.06a.437.437 0 0 1-.185-.191.72.72 0 0 1-.069-.337Zm0 0c0-.142.023-.255.069-.34A.423.423 0 0 1 .67.646C.751.607.841.588.94.588c.1 0 .188.02.266.058a.42.42 0 0 1 .188.188c.046.087.068.2.068.34a.73.73 0 0 1-.068.337.434.434 0 0 1-.188.19.567.567 0 0 1-.266.061c-.1 0-.189-.02-.269-.06a.437.437 0 0 1-.185-.191.72.72 0 0 1-.069-.337Zm0 0c0-.142.023-.255.069-.34A.423.423 0 0 1 .67.646C.751.607.841.588.94.588c.1 0 .188.02.266.058a.42.42 0 0 1 .188.188c.046.087.068.2.068.34a.73.73 0 0 1-.068.337.434.434 0 0 1-.188.19.567.567 0 0 1-.266.061c-.1 0-.189-.02-.269-.06a.437.437 0 0 1-.185-.191.72.72 0 0 1-.069-.337Zm0 0c0-.142.023-.255.069-.34A.423.423 0 0 1 .67.646C.751.607.841.588.94.588c.1 0 .188.02.266.058a.42.42 0 0 1 .188.188c.046.087.068.2.068.34a.73.73 0 0 1-.068.337.434.434 0 0 1-.188.19.567.567 0 0 1-.266.061c-.1 0-.189-.02-.269-.06a.437.437 0 0 1-.185-.191.72.72 0 0 1-.069-.337Zm0 0c0-.142.023-.255.069-.34A.423.423 0 0 1 .67.646C.751.607.841.588.94.588c.1 0 .188.02.266.058a.42.42 0 0 1 .188.188c.046.087.068.2.068.34a.73.73 0 0 1-.068.337.434.434 0 0 1-.188.19.567.567 0 0 1-.266.061c-.1 0-.189-.02-.269-.06a.437.437 0 0 1-.185-.191.72.72 0 0 1-.069-.337Zm0 0c0-.142.023-.255.069-.34A.423.423 0 0 1 .67.646C.751.607.841.588.94.588c.1 0 .188.02.266.058a.42.42 0 0 1 .188.188c.046.087.068.2.068.34a.73.73 0 0 1-.068.337.434.434 0 0 1-.188.19.567.567 0 0 1-.266.061c-.1 0-.189-.02-.269-.06a.437.437 0 0 1-.185-.191.72.72 0 0 1-.069-.337Zm0 0c0-.142.023-.255.069-.34A.423.423 0 0 1 .67.646C.751.607.841.588.94.588c.1 0 .188.02.266.058a.42.42 0 0 1 .188.188c.046.087.068.2.068.34a.73.73 0 0 1-.068.337.434.434 0 0 1-.188.19.567.567 0 0 1-.266.061c-.1 0-.189-.02-.269-.06a.437.437 0 0 1-.185-.191.72.72 0 0 1-.069-.337Zm0 0c0-.142.023-.255.069-.34A.423.423 0 0 1 .67.646C.751.607.841.588.94.588c.1 0 .188.02.266.058a.42.42 0 0 1 .188.188c.046.087.068.2.068.34a.73.73 0 0 1-.068.337.434.434 0 0 1-.188.19.567.567 0 0 1-.266.061c-.1 0-.189-.02-.269-.06a.437.437 0 0 1-.185-.191.72.72 0 0 1-.069-.337Zm0 0c0-.142.023-.255.069-.34A.423.423 0 0 1 .67.646C.751.607.841.588.94.588c.1 0 .188.02.266.058a.42.42 0 0 1 .188.188c.046.087.068.2.068.34a.73.73 0 0 1-.068.337.434.434 0 0 1-.188.19.567.567 0 0 1-.266.061c-.1 0-.189-.02-.269-.06a.437.437 0 0 1-.185-.191.72.72 0 0 1-.069-.337Zm0 0c0-.142.023-.255.069-.34A.423.423 0 0 1 .67.646C.751.607.841.588.94.588c.1 0 .188.02.266.058a.42.42 0 0 1 .188.188c.046.087.068.2.068.34a.73.73 0 0 1-.068.337.434.434 0 0 1-.188.19.567.567 0 0 1-.266.061c-.1 0-.189-.02-.269-.06a.437.437 0 0 1-.185-.191.72.72 0 0 1-.069-.337Zm0 0c0-.142.023-.255.069-.34A.423.423 0 0 1 .67.646C.751.607.841.588.94.588c.1 0 .188.02.266.058a.42.42 0 0 1 .188.188c.046.087.068.2.068.34a.73.73 0 0 1-.068.337.434.434 0 0 1-.188.19.567.567 0 0 1-.266.061c-.1 0-.189-.02-.269-.06a.437.437 0 0 1-.185-.191.72.72 0 0 1-.069-.337Zm0 0c0-.142.023-.255.069-.34A.423.423 0 0 1 .67.646C.751.607.841.588.94.588c.1 0 .188.02.266.058a.42.42 0 0 1 .188.188c.046.087.068.2.068.34a.73.73 0 0 1-.068.337.434.434 0 0 1-.188.19.567.567 0 0 1-.266.061c-.1 0-.189-.02-.269-.06a.437.437 0 0 1-.185-.191.72.72 0 0 1-.069-.337Zm0 0c0-.142.023-.255.069-.34A.423.423 0 0 1 .67.646C.751.607.841.588.94.588c.1 0 .188.02.266.058a.42.42 0 0 1 .188.188c.046.087.068.2.068.34a.73.73 0 0 1-.068.337.434.434 0 0 1-.188.19.567.567 0 0 1-.266.061c-.1 0-.189-.02-.269-.06a.437.437 0 0 1-.185-.191.72.72 0 0 1-.069-.337Zm0 0c0-.142.023-.255.069-.34A.423.423 0 0 1 .67.646C.751.607.841.588.94.588c.1 0 .188.02.266.058a.42.42 0 0 1 .188.188c.046.087.068.2.068.34a.73.73 0 0 1-.068.337.434.434 0 0 1-.188.19.567.567 0 0 1-.266.061c-.1 0-.189-.02-.269-.06a.437.437 0 0 1-.185-.191.72.72 0 0 1-.069-.337Zm0 0c0-.142.023-.255.069-.34A.423.423 0 0 1 .67.646C.751.607.841.588.94.588c.1 0 .188.02.266.058a.42.42 0 0 1 .188.188c.046.087.068.2.068.34a.73.73 0 0 1-.068.337.434.434 0 0 1-.188.19.567.567 0 0 1-.266.061c-.1 0-.189-.02-.269-.06a.437.437 0 0 1-.185-.191.72.72 0 0 1-.069-.337Zm0 0c0-.142.023-.255.069-.34A.423.423 0 0 1 .67.646C.751.607.841.588.94.588c.1 0 .188.02.266.058a.42.42 0 0 1 .188.188c.046.087.068.2.068.34a.73.73 0 0 1-.068.337.434.434 0 0 1-.188.19.567.567 0 0 1-.266.061c-.1 0-.189-.02-.269-.06a.437.437 0 0 1-.185-.191.72.72 0 0 1-.069-.337Zm0 0c0-.142.023-.255.069-.34A.423.423 0 0 1 .67.646C.751.607.841.588.94.588c.1 0 .188.02.266.058a.42.42 0 0 1 .188.188c.046.087.068.2.068.34a.73.73 0 0 1-.068.337.434.434 0 0 1-.188.19.567.567 0 0 1-.266.061c-.1 0-.189-.02-.269-.06a.437.437 0 0 1-.185-.191.72.72 0 0 1-.069-.337Zm0 0c0-.142.023-.255.069-.34A.423.423 0 0 1 .67.646C.751.607.841.588.94.588c.1 0 .188.02.266.058a.42.42 0 0 1 .188.188c.046.087.068.2.068.34a.73.73 0 0 1-.068.337.434.434 0 0 1-.188.19.567.567 0 0 1-.266.061c-.1 0-.189-.02-.269-.06a.437.437 0 0 1-.185-.191.72.72 0 0 1-.069-.337Zm0 0c0-.142.023-.255.069-.34A.423.423 0 0 1 .67.646C.751.607.841.588.94.588c.1 0 .188.02.266.058a.42.42 0 0 1 .188.188c.046.087.068.2.068.34a.73.73 0 0 1-.068.337.434.434 0 0 1-.188.19.567.567 0 0 1-.266.061c-.1 0-.189-.02-.269-.06a.437.437 0 0 1-.185-.191.72.72 0 0 1-.069-.337Zm0 0c0-.142.023-.255.069-.34A.423.423 0 0 1 .67.646C.751.607.841.588.94.588c.1 0 .188.02.266.058a.42.42 0 0 1 .188.188c.046.087.068.2.068.34a.73.73 0 0 1-.068.337.434.434 0 0 1-.188.19.567.567 0 0 1-.266.061c-.1 0-.189-.02-.269-.06a.437.437 0 0 1-.185-.191.72.72 0 0 1-.069-.337Zm0 0c0-.142.023-.255.069-.34A.423.423 0 0 1 .67.646C.751.607.841.588.94.588c.1 0 .188.02.266.058a.42.42 0 0 1 .188.188c.046.087.068.2.068.34a.73.73 0 0 1-.068.337.434.434 0 0 1-.188.19.567.567 0 0 1-.266.061c-.1 0-.189-.02-.269-.06a.437.437 0 0 1-.185-.191.72.72 0 0 1-.069-.337Zm0 0c0-.142.023-.255.069-.34A.423.423 0 0 1 .67.646C.751.607.841.588.94.588c.1 0 .188.02.266.058a.42.42 0 0 1 .188.188c.046.087.068.2.068.34a.73.73 0 0 1-.068.337.434.434 0 0 1-.188.19.567.567 0 0 1-.266.061c-.1 0-.189-.02-.269-.06a.437.437 0 0 1-.185-.191.72.72 0 0 1-.069-.337Zm0 0c0-.142.023-.255.069-.34A.423.423 0 0 1 .67.646C.751.607.841.588.94.588c.1 0 .188.02.266.058a.42.42 0 0 1 .188.188c.046.087.068.2.068.34a.73.73 0 0 1-.068.337.434.434 0 0 1-.188.19.567.567 0 0 1-.266.061c-.1 0-.189-.02-.269-.06a.437.437 0 0 1-.185-.191.72.72 0 0 1-.069-.337Zm0 0c0-.142.023-.255.069-.34A.423.423 0 0 1 .67.646C.751.607.841.588.94.588c.1 0 .188.02.266.058a.42.42 0 0 1 .188.188c.046.087.068.2.068.34a.73.73 0 0 1-.068.337.434.434 0 0 1-.188.19.567.567 0 0 1-.266.061c-.1 0-.189-.02-.269-.06a.437.437 0 0 1-.185-.191.72.72 0 0 1-.069-.337Zm0 0c0-.142.023-.255.069-.34A.423.423 0 0 1 .67.646C.751.607.841.588.94.588c.1 0 .188.02.266.058a.42.42 0 0 1 .188.188c.046.087.068.2.068.34a.73.73 0 0 1-.068.337.434.434 0 0 1-.188.19.567.567 0 0 1-.266.061c-.1 0-.189-.02-.269-.06a.437.437 0 0 1-.185-.191.72.72 0 0 1-.069-.337Zm0 0c0-.142.023-.255.069-.34A.423.423 0 0 1 .67.646C.751.607.841.588.94.588c.1 0 .188.02.266.058a.42.42 0 0 1 .188.188c.046.087.068.2.068.34a.73.73 0 0 1-.068.337.434.434 0 0 1-.188.19.567.567 0 0 1-.266.061c-.1 0-.189-.02-.269-.06a.437.437 0 0 1-.185-.191.72.72 0 0 1-.069-.337Z" fill="#999"/></svg>