<svg width="12" height="12" fill="none" xmlns="http://www.w3.org/2000/svg"><path fill-rule="evenodd" clip-rule="evenodd" d="m1.429.239 5.326 5.185a.8.8 0 0 1 0 1.152l-5.326 5.185a.853.853 0 0 1-1.184 0 .8.8 0 0 1 0-1.152L4.98 6 .245 1.39a.8.8 0 0 1 0-1.151.853.853 0 0 1 1.184 0Z" fill="#999"/><path fill-rule="evenodd" clip-rule="evenodd" d="M10.571.239 5.245 5.424a.8.8 0 0 0 0 1.152l5.326 5.185a.853.853 0 0 0 1.184 0 .8.8 0 0 0 0-1.152L7.02 6l4.734-4.61a.8.8 0 0 0 0-1.151.853.853 0 0 0-1.184 0Z" fill="#999"/></svg>