<svg width="26" height="28" fill="none" xmlns="http://www.w3.org/2000/svg"><path d="M24.98 22.85c-.652-1.572-1.599-3-2.787-4.203a12.977 12.977 0 0 0-4.131-2.835l-.042-.018a8.752 8.752 0 0 0 3.554-7.07C21.574 3.904 17.737 0 13 0S4.426 3.905 4.426 8.724c0 2.909 1.4 5.487 3.554 7.073-.014.008-.028.011-.042.018a12.864 12.864 0 0 0-4.131 2.835 13.227 13.227 0 0 0-2.787 4.204A13.269 13.269 0 0 0 0 27.712a.285.285 0 0 0 .17.266c.033.014.07.022.107.022H2.35a.278.278 0 0 0 .277-.274 10.576 10.576 0 0 1 3.035-7.187c1.96-1.994 4.564-3.092 7.337-3.092 2.773 0 5.376 1.098 7.337 3.092a10.577 10.577 0 0 1 3.035 7.187.276.276 0 0 0 .277.274h2.074a.273.273 0 0 0 .198-.085.282.282 0 0 0 .079-.203 13.303 13.303 0 0 0-1.02-4.862ZM13 14.774c-1.587 0-3.08-.63-4.204-1.773a6.064 6.064 0 0 1-1.743-4.277c0-1.615.62-3.135 1.743-4.278A5.857 5.857 0 0 1 13 2.673c1.587 0 3.08.63 4.204 1.773a6.064 6.064 0 0 1 1.743 4.278A6.064 6.064 0 0 1 17.204 13 5.857 5.857 0 0 1 13 14.774Z" fill="#fff"/></svg>